<svg xmlns="http://www.w3.org/2000/svg" viewBox="0 0 404.17 186.04"><defs><style>.cls-1{fill:#fff;}</style></defs><title>Asset 2</title><g id="Layer_2" data-name="Layer 2"><g id="Layer_1-2" data-name="Layer 1"><g id="Layer_1-2-2" data-name="Layer 1-2"><path class="cls-1" d="M213.53,53.5v9a50.87,50.87,0,0,0,1,10.66c.34,1.59-.61,2.77-1.74,3.72a15.88,15.88,0,0,1-8.26,3.28,7.52,7.52,0,0,1-3.62-.15c-.67-.22-1-.58-.91-1.27.22-1.92.47-3.84.7-5.76.18-1.52.4-3,.52-4.56.3-3.7.55-7.4.82-11.1V57c.27-6.71.31-13.42.16-20.12a61.89,61.89,0,0,0-1.14-11.36c-.18-.82.24-1.21.91-1.47a8.52,8.52,0,0,1,5.42.05,5.64,5.64,0,0,1,3.9,3.19,1.11,1.11,0,0,0,1.37.77,1,1,0,0,0,.38-.19,11.71,11.71,0,0,0,1.46-.94c2.25-1.64,4.87-2.16,7.57-2.54a20.34,20.34,0,0,1,10.47,1.66,8.41,8.41,0,0,1,3.85,2.77c.68.92,1.1.94,1.91.14A16.8,16.8,0,0,1,249,24.44a18.78,18.78,0,0,1,10.9,1.93,11.72,11.72,0,0,1,5.95,7.47,27.36,27.36,0,0,1,.63,9.54c-.16,2.13-.3,4.28-.46,6.42-.27,3.59-.64,7.19-.77,10.79a67.47,67.47,0,0,0,.09,7.79,31.07,31.07,0,0,0,1.52,7.07,25.29,25.29,0,0,0,1.36,3c.57,1.19.35,1.66-.84,2.11a7.59,7.59,0,0,1-3.35.25A19.2,19.2,0,0,1,256.47,79a9.7,9.7,0,0,1-5.11-6.89c-.8-3.32-.22-6.57.32-9.83,1-5.87,2.7-11.6,3.53-17.5.42-3,.67-6-.35-8.92-1.55-4.49-7.32-6.5-11.1-3.79A8.6,8.6,0,0,0,240,38.9c-.51,6.74-.35,13.47-.31,20.21a106.47,106.47,0,0,0,.77,13,5.56,5.56,0,0,1-3,5.82,21.83,21.83,0,0,1-8.51,2.4c-1.78.19-2.63-.82-2.28-2.55a65.43,65.43,0,0,0,1-8.71c.74-10.49.3-21,.36-31.51a6.53,6.53,0,0,0-6.37-6.43,7.66,7.66,0,0,0-7.57,6.06,23,23,0,0,0-.61,5.16C213.51,46.1,213.53,49.8,213.53,53.5Z"/><path class="cls-1" d="M302.76,49.78a36.09,36.09,0,0,0-1-10.76c-.69-2.49-1.63-5-4-6.32-3.39-1.92-8.75-1.61-10.88,3.18a10,10,0,0,0-.44,2.92c-.25,2.06-.3,4.14-.46,6.22-.26,3.33-.36,6.67-.46,10,0,1.28-.11,2.58-.15,3.88-.29,8.83-.26,17.66-.18,26.49,0,4.16.34,8.31.62,12.46.11,1.6.25,3.19.4,4.78a6.28,6.28,0,0,1-2.4,5.49,24,24,0,0,1-5.91,4.19,22.49,22.49,0,0,1-5,1.56c-1.14.22-1.81-.52-1.65-1.66.31-2.19.57-4.38.72-6.59.23-3.26.55-6.51.8-9.77.09-1.25.14-2.52.17-3.77.05-2.39.22-4.78.3-7.17.12-3.92.27-7.85.42-11.77.08-1.87,0-3.75.16-5.63.24-3.41.05-6.84.23-10.25.37-7,.16-14,.12-21a53.32,53.32,0,0,0-.73-8.74,16.83,16.83,0,0,1,0-1.74.73.73,0,0,1,.6-.84h.09c2.89-.47,5.64-.35,7.9,1.88.46.45,1,.85,1.49,1.26a1.29,1.29,0,0,0,1.69,0,19.89,19.89,0,0,1,8.13-3.44,17.47,17.47,0,0,1,13.93,3.58c3.56,2.73,4.91,6.7,6.06,10.76a44.77,44.77,0,0,1,1.85,13.21,54.46,54.46,0,0,1-2.25,13.35A27.3,27.3,0,0,1,309,73.93a11.74,11.74,0,0,1-11.22,5.4c-5.06-.42-7.23-2.85-8-8a8.59,8.59,0,0,1-.09-3.35c.39-1.59.81-1.71,2.36-1.08a6.64,6.64,0,0,0,2.56.54,6.11,6.11,0,0,0,5-2.69,15.63,15.63,0,0,0,2.64-7.44A38.78,38.78,0,0,0,302.76,49.78Z"/><path class="cls-1" d="M360.39,42.22c-.34,6.78-.35,13.56-.2,20.33a34.68,34.68,0,0,0,1.69,11.26,9.05,9.05,0,0,0,1.6,2.84c.71.82.5,1.64-.56,1.94a19.21,19.21,0,0,1-11.67-.1,3.42,3.42,0,0,1-2.32-2.41,10.6,10.6,0,0,1-.51-3.11c0-1.82-.08-3.64,0-5.45.22-3.83.11-7.66.23-11.49,0-1.36.14-2.72.17-4.08,0-.84-.36-1.19-1.18-1.16-5.24.14-9.88,1.72-13.45,5.7-2.59,2.89-3,8.08.08,11,1.12,1.06,4.42,1.25,5.91.43.33-.17.66-.37,1-.57,1.31-.8,1.93-.61,2.46.84A7.45,7.45,0,0,1,340.53,77a14,14,0,0,1-10,2.2,14.55,14.55,0,0,1-5.81-1.8,12.24,12.24,0,0,1-5.52-8.25A16.87,16.87,0,0,1,322.35,55a22.17,22.17,0,0,1,6.47-5.61c3.36-2.05,7.09-2.94,10.86-3.8A41.28,41.28,0,0,0,347,43.38a2.74,2.74,0,0,0,1.83-2.66,19.92,19.92,0,0,0,0-5c-.69-3.23-2.48-4.14-5.32-4.48a8.3,8.3,0,0,0-5.83,1.5,5.45,5.45,0,0,0-2.18,5.38c.69,3.22.58,3.46-2.64,4.11a9.36,9.36,0,0,1-7-1,5.94,5.94,0,0,1-2.49-6.86,11.54,11.54,0,0,1,5.14-6.77c1.77-1.06,3.84-1.38,5.8-2a27.81,27.81,0,0,1,9.52-1,29.22,29.22,0,0,1,10.69,2.5,9.13,9.13,0,0,1,5.63,8.67C360.22,38,360.33,40.1,360.39,42.22Z"/><path class="cls-1" d="M181.45,53.86a22.87,22.87,0,0,0-1.8-10.26,15.92,15.92,0,0,0-8.72-8.6,21.78,21.78,0,0,0-9.6-1.63c-1.33,0-2.65.17-4,.17-.54,0-1.12,0-1.31-.59s.24-.89.6-1.21a22.59,22.59,0,0,1,9.87-5.17,55.38,55.38,0,0,1,11.8-1.72c1.7-.07,3.42-.23,5.11-.13a33.44,33.44,0,0,1,9.16,1.39l.38.13c.46.26,1.05.34,1.05,1.09s-.59.87-1.07,1a16.9,16.9,0,0,0-4,1.85c-1.19.79-2.4,1.56-3.55,2.42s-1.22,2.07-.06,2.78c4.16,2.56,5.86,6.67,7.18,11a27,27,0,0,1,.82,10,27.85,27.85,0,0,1-6.09,16,21,21,0,0,1-12.67,7.38,22.55,22.55,0,0,1-5.67.61c-5.42-.39-10.59-1.56-14.53-5.63a17.81,17.81,0,0,1-4.81-9.88,33.59,33.59,0,0,1-.55-5.57,31.85,31.85,0,0,1,1.21-8.57,20.91,20.91,0,0,1,3.12-6.86,16.4,16.4,0,0,1,9.8-6.25,3.1,3.1,0,0,1,1.81-.06c.75.25.8.68.47,1.24s-.75,1.06-1.09,1.61a27.89,27.89,0,0,0-3.66,11.5,26.94,26.94,0,0,0-.39,4.57c.23,4.47.92,8.87,3.13,12.81a8.5,8.5,0,0,0,6.82,4.32c4.59.52,7.67-3.18,8.92-6.22A30,30,0,0,0,181.45,53.86Z"/><path class="cls-1" d="M116.92,51.13c-.42,3.4.56,6.93,1.81,10.43,1.31,3.67,5.57,6.56,9.48,6.75a12.12,12.12,0,0,0,9.28-3.53A11.26,11.26,0,0,0,140.07,61a6.4,6.4,0,0,1,.41-.83c.27-.49.56-.94,1.22-1s.76.53,1,.9a5.11,5.11,0,0,1,.64,2.35,13.41,13.41,0,0,1-5,12.89,19.24,19.24,0,0,1-8.92,4.26A25.68,25.68,0,0,1,118,79a15.57,15.57,0,0,1-7.1-4.1,19.12,19.12,0,0,1-4.37-7.08,35.66,35.66,0,0,1-2-14.91,41.84,41.84,0,0,1,4.53-17c3.3-6.26,8.34-10.09,15.49-11.1a22,22,0,0,1,10.77.81c4.88,1.78,7.92,5.15,8.47,10.52a9.5,9.5,0,0,1-4.39,9.57,7.23,7.23,0,0,1-9.27-1.07,3.85,3.85,0,0,1-.8-4.06,3.11,3.11,0,0,1,1.4-1.16c1.93-1.09,2.28-2.91,2.11-4.85A4,4,0,0,0,130,31c-3.46-1.26-7.33.6-9.35,3.72a24.16,24.16,0,0,0-3.32,9.18A35,35,0,0,0,116.92,51.13Z"/><path class="cls-1" d="M404.17,37.64c-.14,2.9-.33,5.79-.41,8.69a18.73,18.73,0,0,0,.34,3.34,2.15,2.15,0,0,1-1,2.37c-2.36,1.28-7.9.56-9.8-1.34a6,6,0,0,1-1.57-6.11c.59-2.48,1.51-4.89,1.35-7.51-.12-2.06-.73-3.76-2.76-4.62a5,5,0,0,0-5.45.95c-2.07,1.69-2.82,4.12-3.08,6.61a161.08,161.08,0,0,0-.39,20.61,90.35,90.35,0,0,0,.91,12.62A3.77,3.77,0,0,1,380.52,77a14.23,14.23,0,0,1-11,2.8C368,79.53,367.7,79,368,77.47a104.31,104.31,0,0,0,1.45-11.94c.18-2.62.26-5.24.41-7.86.36-6.06.21-12.12.12-18.17a76.86,76.86,0,0,0-1-12.86c-.3-1.59.36-2.41,2.2-2.34,3.41.13,6.62.83,8.43,4.22.38.71.89.51,1.37.19s1-.79,1.56-1.16a14,14,0,0,1,7-2.51,15.9,15.9,0,0,1,9.73,2c2.85,1.64,4.16,4.4,4.61,7.62A19.78,19.78,0,0,1,404.17,37.64Z"/><path class="cls-1" d="M10,0c.76,1.24,1.5,2.5,2.28,3.73,1.07,1.7,2.18,3.39,3.25,5.09a1.43,1.43,0,0,0,1.79.72,15.46,15.46,0,0,1,8.45-.11,20.41,20.41,0,0,1,5.57,3c.56.39,1.11.79,1.64,1.22s1.2,1.2.77,1.94-1.3.59-2,.53a3.33,3.33,0,0,1-2.19-1.2,15,15,0,0,0-15.21-4c-1.28.35-2.53.83-3.77,1.3A1.19,1.19,0,0,1,9,11.74l0-.07c-2-3-3.95-6.06-6-9.06-.48-.71-.31-1,.4-1.29l2-.67C5.66.51,6,.44,6.06,0Z"/><path class="cls-1" d="M34.14,186c.89-1.34,1.69-2.59,2.53-3.83,4.25-6.27,8.49-12.56,12.76-18.81S58,150.94,62.19,144.75q6.12-8.91,12.19-17.84c1.35-2,2.69-4,4.07-5.9a3.25,3.25,0,0,0,.23-3.8,120.64,120.64,0,0,0-7.53-11.7c-1.68-2.41-3.24-4.9-4.75-7.42a2.07,2.07,0,0,1-.07-1.86c1.27-3.86,2.53-7.72,3.55-11.65a22.76,22.76,0,0,0,.71-7.92A13,13,0,0,0,68.11,71a76.15,76.15,0,0,1-8.5-17c-.61-1.78-1.17-3.59-.55-5.58a10.11,10.11,0,0,1,2.69-3.8,41.34,41.34,0,0,0,7-9.51,19.41,19.41,0,0,0,2.44-10.44A15.69,15.69,0,0,0,67,15.21a28.82,28.82,0,0,0-7.34-5.69,18.39,18.39,0,0,1-1.92-1.35c-.21-.17-.68-.28-.53-.64s.55-.33.9-.33c1.27,0,2.55-.08,3.81,0A14.84,14.84,0,0,1,70,9.73a27.45,27.45,0,0,1,3.8,3.43,20.77,20.77,0,0,1,4.29,6.68c1.58,4.19,1,8.26-.78,12.21-1.92,4.31-4.83,8-7.73,11.66A15.45,15.45,0,0,0,67.38,47c-1.14,2.65-.06,4.87,1.44,7a67.19,67.19,0,0,0,5,5.66c2.86,3.16,5.42,6.51,6.8,10.61a23.07,23.07,0,0,1,1.26,9.78c-.4,4-1.13,7.86-3.72,11.08a7.92,7.92,0,0,0-2,3A2,2,0,0,0,76.51,96c1.57,1.88,3.13,3.78,4.77,5.61,3,3.3,6,6.53,8.87,9.91,1.22,1.43,2.42,2.86,3.66,4.27A1.56,1.56,0,0,1,94,118h0a50.58,50.58,0,0,1-4.69,5.94c-3.25,3.55-6.54,7.06-9.78,10.62-2.72,3-5.4,6.05-8.08,9.1-3.24,3.69-6.44,7.41-9.68,11.1-2.61,3-5.25,5.92-7.85,8.9-2.88,3.32-5.71,6.69-8.59,10-2.41,2.79-4.85,5.54-7.27,8.32-1.07,1.23-2.11,2.5-3.16,3.75A.63.63,0,0,1,34.14,186Z"/><path class="cls-1" d="M3,19.56c.41,0,.51.42.69.68Q6.29,24,8.83,27.78L22.53,48q4.89,7.2,9.8,14.39L45.75,82.07q4.91,7.19,9.8,14.39c.79,1.16,1.58,2.31,2.39,3.45a1.11,1.11,0,0,1,0,1.57l-.16.13c-.72.64-1.38,1.33-2,2-.41.44-.65.42-1-.11-1.84-2.75-3.73-5.47-5.6-8.2L31.92,70.24c-3.07-4.48-6.16-8.94-9.23-13.41Q15.39,46.18,8.1,35.55,4.22,29.9.29,24.27a1,1,0,0,1,0-1.41A33.46,33.46,0,0,0,2.4,20.07,1,1,0,0,1,3,19.56Z"/><path class="cls-1" d="M269.26,133v5.49a40.33,40.33,0,0,0,.39,5.6,3,3,0,0,1-1.53,2.81,13.11,13.11,0,0,1-4.58,1.36c-.88.14-1.41-.43-1.26-1.37,1.11-7,.78-14,.78-21,0-1.52-.22-3.07-1.77-4a4,4,0,0,0-5.46,1.46l0,0a7.72,7.72,0,0,0-.77,2.94c-.3,3.69-.14,7.38-.17,11.08a41,41,0,0,0,.56,6.91,1.9,1.9,0,0,1-.55,1.58,6.89,6.89,0,0,1-4.4,2.17l-.9.16c-1.32.26-2-.43-1.78-1.73.29-2.26.53-4.53.68-6.8.31-4.88.53-9.76.41-14.65a35.63,35.63,0,0,0-.57-6.19c-.14-.71,0-1.16.83-1.35a4.67,4.67,0,0,1,4.33,1.46c.66.88,1,.94,2,.26,3.12-2.17,8-1.87,11,0,.59.38.87,1.27,1.69,1.21s1.07-.8,1.63-1.18c3.14-2.08,8.46-2.2,11.48.18a6.78,6.78,0,0,1,2.46,4.34,28.6,28.6,0,0,1-.18,7.84c-.08.81-.12,1.63-.15,2.44-.15,3.42-.72,6.87.28,10.27a13.77,13.77,0,0,0,1,2.78c.34.61.29,1-.47,1.2a6.67,6.67,0,0,1-8.33-4.43,7.06,7.06,0,0,1-.21-.91c-.36-3,.48-5.92,1.1-8.84a35,35,0,0,0,1.17-8.27c-.06-2.35-1.09-3.92-3.07-4.44a4.24,4.24,0,0,0-5.25,2.89,3.87,3.87,0,0,0-.16.89C269.16,128,269.41,130.76,269.26,133Z"/><path class="cls-1" d="M220.32,112.05c0,2.93.15,5.34,0,7.72-.53,7.07-.34,14.15-.37,21.23a16,16,0,0,0,.71,5c.46,1.38.31,1.51-1.09,1.84a9.43,9.43,0,0,1-5.12-.54,2,2,0,0,1-1.28-2.15,71.23,71.23,0,0,1,.37-10.43c.13-.92,0-1.84.1-2.76a53.27,53.27,0,0,0,.29-7.47c-.16-2-2.27-3.1-4.47-2.49a5.13,5.13,0,0,0-3.29,2.59,17.7,17.7,0,0,0-1.5,14c.66,2.16,2.11,3,4.35,2.56,1.3-.24,2,.53,1.84,1.91-.47,3.34-4.2,5-6.82,4.59-3.39-.55-5-2.82-5.9-5.79a22.68,22.68,0,0,1,1.44-16.25,11.7,11.7,0,0,1,9.29-7.21,8.25,8.25,0,0,1,3.76.28c.87.27,1.37-.09,1.33-1a69.94,69.94,0,0,0-.41-7.66,5.53,5.53,0,0,0-2-3.61c-.74-.59-.6-1.1,0-1.59a12.37,12.37,0,0,1,4.63-2.09,6.33,6.33,0,0,1,2.62-.42,1.33,1.33,0,0,1,1.35,1.33v0C220.49,106.7,220.21,109.64,220.32,112.05Z"/><path class="cls-1" d="M295.15,147.51a9,9,0,0,0-.81-4q-2.4-7-5-13.89a36.23,36.23,0,0,0-3.09-6.47,5.07,5.07,0,0,0-1.57-1.72.86.86,0,0,1,0-1.56,14.08,14.08,0,0,1,4.71-1.61,1,1,0,0,0,.5-.09c1.88-.42,2.72.06,3.36,1.89.79,2.22,1.37,4.5,2,6.77,1,3.56,2.16,7,3.44,10.51.2.57.46,1.34,1.1,1.36s1-.68,1.22-1.25a40.29,40.29,0,0,0,2.81-7.89c.46-2.41.61-4.8-.8-7a3.28,3.28,0,0,0-1.47-1.21c-.95-.46-1-1.16-.1-1.75a13.69,13.69,0,0,1,5.89-1.91c3.13-.41,3.71.12,3.55,3.32a22.14,22.14,0,0,1-2,7.48c-2,4.75-4.74,9.18-6.92,13.87-1.45,3.12-3.07,6.18-3.88,9.57a28.33,28.33,0,0,0-.52,10.46q.23.95.54,1.86c.24.93-.16,1.46-1.09,1.3A10.53,10.53,0,0,1,291.4,163a3.33,3.33,0,0,1-.93-3.45,21.77,21.77,0,0,1,1.74-4.48c.72-1.62,1.65-3.15,2.29-4.82A5.38,5.38,0,0,0,295.15,147.51Z"/><path class="cls-1" d="M144.06,128.45a83.29,83.29,0,0,0-.21,9.48,23.76,23.76,0,0,0,.6,5.57,6.39,6.39,0,0,0,1.2,2.79c.37.42.27.77-.26.93a9.72,9.72,0,0,1-6.62-.18c-1.24-.51-1.32-1.82-1.26-2.82.18-3.61,0-7.24.33-10.84.08-.77-.22-1.34-1-1.35-2.55,0-6.78,1.57-8,4.5a4.29,4.29,0,0,0-.12,3.28,3,3,0,0,0,3.76,2,2.78,2.78,0,0,0,.76-.36c1-.55,1.36-.39,1.67.71a4,4,0,0,1-1.37,4,8.06,8.06,0,0,1-10-.23,6.46,6.46,0,0,1-2.07-4.57c-.33-4.55,1.67-7.9,5.72-10a22.27,22.27,0,0,1,5.89-2c1.23-.26,2.42-.74,3.62-1.11a1.55,1.55,0,0,0,1.15-1.33,11.2,11.2,0,0,0,0-3.06c-.43-2.38-3.29-2.9-5.21-2.1a3.23,3.23,0,0,0-2.09,4c.3.86-.09,1.3-.84,1.55a6.21,6.21,0,0,1-3.34.09c-2.34-.54-3.11-2.64-2.21-4.8a6.66,6.66,0,0,1,4.83-3.89,19.65,19.65,0,0,1,11.29.33,5.37,5.37,0,0,1,3.66,4.7C144,125.06,144,126.41,144.06,128.45Z"/><path class="cls-1" d="M187.21,140.57c-.21-2.14.3-4.72.22-7.32,0-.71-.18-1.29-1-1.23-3,.22-5.67,1.19-7.51,3.73a4.21,4.21,0,0,0-.55,3.91,2.86,2.86,0,0,0,3.38,2.2,2.8,2.8,0,0,0,.83-.32c.5-.22,1-.82,1.58-.28a2.41,2.41,0,0,1,.47,2.1,4.55,4.55,0,0,1-3.33,3.8,7.69,7.69,0,0,1-8.13-1.39,6.41,6.41,0,0,1-2-4.6c-.35-5.43,2.5-8.49,7.08-10.6a32.42,32.42,0,0,1,5.8-1.62c3.28-.84,3.91-1.76,3.33-5.09a3.41,3.41,0,0,0-4.16-2.47l-.12,0c-2.52.69-3.26,1.83-2.92,4.5a1.06,1.06,0,0,1-.73,1.3,6.25,6.25,0,0,1-3.24.19c-2.69-.6-3.58-3.22-2-5.71a7.27,7.27,0,0,1,4.55-3.07,19,19,0,0,1,10.89.28,5,5,0,0,1,3.73,4.34,52.7,52.7,0,0,1,.06,9.4,30.24,30.24,0,0,0,.12,6.45c.17,1.07,0,2.17.23,3.26a8.52,8.52,0,0,0,1.41,3.9c.33.42.33.78-.21.94a9.11,9.11,0,0,1-6.5-.19,2.19,2.19,0,0,1-1.27-2.18C187.22,143.57,187.21,142.3,187.21,140.57Z"/><path class="cls-1" d="M147.7,135.48A22.83,22.83,0,0,1,151,122.87a10.32,10.32,0,0,1,7.58-4.66,11.12,11.12,0,0,1,7.06,1,6.36,6.36,0,0,1,2.58,8.62q-.15.27-.33.54a4.08,4.08,0,0,1-5.64,1.16l-.22-.16a1.83,1.83,0,0,1,.13-3.22c1-.58.91-1.57.76-3.08a2.27,2.27,0,0,0-2.11-1.65c-2.41-.2-4.21,1-5.31,3.67a16.82,16.82,0,0,0-1.33,7c.09,2.57.28,5.18,1.75,7.46a5.18,5.18,0,0,0,3.57,2.38,6.49,6.49,0,0,0,7.27-3.39c.12-.2.22-.43.33-.64s.37-.64.76-.59.59.38.69.79a7.29,7.29,0,0,1-2.57,7.78c-3.67,3.17-9.78,3.18-13.59.67a9.39,9.39,0,0,1-3.78-5.33A15.79,15.79,0,0,1,147.7,135.48Z"/><path class="cls-1" d="M243.31,137.27a1,1,0,0,0-1.2.74c-1.08,2.37-3,3.44-5.51,3.85s-5.52-1.92-5.59-4.49c0-.51.06-.78.69-.86a21.34,21.34,0,0,0,8.06-2.49,10.08,10.08,0,0,0,5.39-9,7.4,7.4,0,0,0-4.91-6.8,13,13,0,0,0-5.92-.61,10.68,10.68,0,0,0-7.65,4.21A18.66,18.66,0,0,0,223,134.1a17.41,17.41,0,0,0,1.21,7.62c1.32,3.4,3.5,6,7.29,6.62a14.28,14.28,0,0,0,7.73-.88,8.56,8.56,0,0,0,5.13-8.82A1.43,1.43,0,0,0,243.31,137.27Zm-8.12-15.92c1.6-.54,4.12.86,3.26,4.76-.32,1.4-1,5.9-8.19,6.81,0,0-1.45-9.11,4.93-11.57Z"/></g></g></g></svg>